<svg xmlns="http://www.w3.org/2000/svg" xmlns:xlink="http://www.w3.org/1999/xlink" viewBox="0 0 2321.44 635"><defs><style>.cls-1{fill:none;}.cls-2{fill:#ffffff;}.cls-3{fill:none;}.cls-4{fill:#ffffff;}.cls-5{clip-path:url(#clip-path);}</style><clipPath id="clip-path"><rect class="cls-1" width="2321.44" height="635"/></clipPath></defs><g id="Ebene_2" data-name="Ebene 2"><g id="Ebene_1-2" data-name="Ebene 1"><path class="cls-2" d="M0,378.13C89.54,332,220.71,257.51,376.41,148.55V112C239.38,201.62,100,273.61,0,321.22v56.91Z"/><path class="cls-2" d="M0,268.92C99.7,228.3,239.05,165.55,376.41,83.85v-18C247.31,129.84,113.18,169.92,0,194.91v74Z"/><path class="cls-2" d="M376.41,378.3V194.36C290.71,266.6,205.84,329.15,134.55,378.3Z"/><path class="cls-2" d="M86.42,378.3c67.7-40.17,149.87-92.62,231.7-153.92,19.09-14.31,38.58-29,58.29-44.28V157.3c-121.12,90.81-244.74,166.5-341.32,221Z"/><path class="cls-2" d="M0,168.15C110.09,148.79,244.79,114,376.41,51.41V30.9C243.77,90.44,111,115.69,0,124.67v43.48Z"/><path class="cls-2" d="M0,0V105.38q12.33-.76,25.17-1.76c91.53-7,216.44-23.21,351.24-81.5V0Z"/><path class="cls-3" d="M0,105.38v19.29c111-9,243.77-34.23,376.41-93.77V22.12C241.61,80.41,116.7,96.58,25.17,103.62q-12.84,1-25.17,1.76Z"/><path class="cls-3" d="M0,194.91c113.18-25,247.31-65.07,376.41-129.11V51.41C244.79,114,110.09,148.79,0,168.15v26.76Z"/><path class="cls-3" d="M0,321.22C100,273.61,239.38,201.62,376.41,112V83.85C239.05,165.55,99.7,228.3,0,268.92v52.3Z"/><path class="cls-3" d="M86.42,378.3h48.13c71.29-49.15,156.16-111.7,241.86-183.94V180.1c-19.71,15.23-39.2,30-58.29,44.28-81.83,61.3-164,113.75-231.7,153.92Z"/><path class="cls-3" d="M0,378.3H35.09c96.58-54.5,220.2-130.19,341.32-221v-8.75C220.71,257.51,89.54,332,0,378.13v.17Z"/><path class="cls-4" d="M503.16,378.13h50.59V267.53H639V227.78H553.75V165.64h89.62V125.9H503.16V378.13Zm174.89,0h48.42V309.81c0-26.72,0-75.89,39.37-75.89,8.68,0,17.35,1.43,21.7,4V189.12c-5.06-1.44-10.12-1.44-14.82-1.44-28.9,0-48.78,29.29-51,46.59h-.72V192h-43V378.13ZM823.67,243.34c16.26-12.31,36.84-20.25,57.46-20.25,28.52,0,41.9,10.12,41.9,40.12H896.29c-20.22,0-44.08,1.78-62.51,10.83S802,299.34,802,327.18c0,35.39,32.15,55.28,65,55.28,22.05,0,46.27-11.55,57.45-32.16h.74c.37,5.76.37,18,2.16,27.83H970c-1.09-14.49-1.81-27.51-2.18-41.58-.36-13.73-.71-27.82-.71-46.62V266.08c0-54.93-23.49-78.4-80.22-78.4-20.6,0-45.88,5.43-64.68,14.1l1.45,41.56Zm24.55,80.94c0-28.56,32.16-32.18,53.85-32.18h21c0,14.47-2.16,27.82-10.13,38.33-7.58,10.07-19.13,16.63-33.95,16.63-17.34,0-30.73-6.9-30.73-22.78M1178.53,192h-48.46v91.07c0,23.82-7.58,61.77-42.63,61.77-31.07,0-31.44-30.72-31.44-53.49V192h-48.41V309.46c0,41.91,19.15,73,63.24,73,25.28,0,46.25-11.55,61.05-29.64h.75v25.31h45.9V192Zm49.87,186.11h48.41V287c0-23.83,7.6-61.79,42.64-61.79,31,0,31.42,30.72,31.42,53.48v99.4h48.46V260.67c0-41.92-19.18-73-63.25-73-25.3,0-45.91,8.32-61.06,29.63h-.78V192H1228.4V378.13Zm220.76,0h48.42V287c0-23.83,7.6-61.79,42.66-61.79,31.07,0,31.41,30.72,31.41,53.48v99.4H1620V260.67c0-41.92-19.14-73-63.19-73-25.3,0-46.26,11.57-58.5,29.63h-.77V107.11h-48.42v271Zm201.6-91.78c0,53.43,35.81,96.11,97.24,96.11,61.78,0,97.54-42.68,97.54-96.11,0-61.45-42.23-98.67-97.54-98.67-54.92,0-97.24,37.22-97.24,98.67m50.61-5.82c0-27.82,15.18-55.28,46.63-55.28,31.81,0,47,26.74,47,55.28,0,31.1-9.73,64.33-47,64.33-36.9,0-46.63-33.61-46.63-64.33m192.6,97.6h48.4V227.42h42.28V192h-42.28V168.89c0-14.45,5.08-28.56,21.37-28.56,10.45,0,16.6,4,20.91,6.53l4-40.12a171.24,171.24,0,0,0-35.4-4c-38.33,0-59.27,26-59.27,63.24v26h-35.76v35.4H1894V378.13ZM2048.6,266.81c2.22-24.93,15.91-43.72,43-43.72s38,20.25,39.39,43.72Zm114.93,61.46c-18.08,10.1-38.3,18.79-61.81,18.79-29.94,0-50.9-17-53.12-47h128.63c0-65-19.5-112.36-88.53-112.36-57.78,0-86.32,44.43-86.32,98.28,0,61.1,35.74,96.5,97.2,96.5,26,0,46.22-5.06,64-14.83V328.27ZM2212,378.13h48.41V309.81c0-26.72,0-75.89,39.36-75.89,8.69,0,17.38,1.43,21.71,4V189.12c-5.11-1.44-10.14-1.44-14.83-1.44-28.9,0-48.77,29.29-50.93,46.59h-.75V192h-43V378.13Z"/><g class="cls-5"><path class="cls-4" d="M1532.66,506.62h24.46V579.5c-.12,10.82,1.81,19.4,5.77,25.66q5.94,9.95,19.57,9.94,14,0,19.73-9.94c3.72-6.26,5.58-14.84,5.58-25.66V506.62h24.48v80.65q-.72,48.43-49.79,47.72-49.11.71-49.8-47.72V506.62Z"/></g><polygon class="cls-4" points="1664.91 506.62 1704.04 506.62 1733.02 602.27 1733.39 602.27 1762.37 506.62 1801.51 506.62 1801.51 632.81 1778.1 632.81 1778.1 528.69 1777.76 528.69 1744.92 632.81 1721.5 632.81 1688.65 528.69 1688.31 529.05 1688.31 632.81 1664.91 632.81 1664.91 506.62 1664.91 506.62"/><path class="cls-4" d="M1877.52,524.34a27.43,27.43,0,0,0-6.29.74,18,18,0,0,0-6.29,2.69,14.13,14.13,0,0,0-4.71,5.44,17.52,17.52,0,0,0-1.93,8.67,9.59,9.59,0,0,0,2.44,6.68,25.56,25.56,0,0,0,6.12,4.89,73.22,73.22,0,0,0,8.72,4l9.61,4.16a71.64,71.64,0,0,1,9.79,4.71,35,35,0,0,1,8.57,7,33.93,33.93,0,0,1,6.1,9.59,41,41,0,0,1,2.11,13.93q-.36,20.43-13.46,29.28T1866,635a74.37,74.37,0,0,1-15.9-1.45c-4.42-.85-9.56-2-15.38-3.42l2.28-22.79a54.85,54.85,0,0,0,27.6,7.77,29,29,0,0,0,14.5-4c4.66-2.63,7-6.74,7.16-12.29a14,14,0,0,0-2.09-7.77,21.17,21.17,0,0,0-6.12-5.42,160.28,160.28,0,0,0-18.34-8.32,64.55,64.55,0,0,1-9.61-5.06,45.45,45.45,0,0,1-8.74-6.51,34.26,34.26,0,0,1-6.11-9.58,32.75,32.75,0,0,1-2.45-13.19q.36-21,13.45-30,12.6-8.49,29.17-8.51a91.1,91.1,0,0,1,29.17,4.54l-2.25,20.77a62.48,62.48,0,0,0-24.81-5.42Z"/><polygon class="cls-4" points="1938.84 506.62 1963.29 506.62 1963.29 632.81 1938.84 632.81 1938.84 506.62 1938.84 506.62"/><path class="cls-4" d="M2083.48,631a107.33,107.33,0,0,1-27.77,4q-30,0-48-15.73-18.71-15.39-18.87-47.36,1.23-66.74,66.92-67.45a81.07,81.07,0,0,1,27.6,5.25L2081.56,531a51.77,51.77,0,0,0-13.27-5.59,78.42,78.42,0,0,0-13.1-1.09q-19.05.21-29.7,13-11.19,12.81-11.18,32.72,0,19.7,11,32,10.82,12.84,30.4,13a71.61,71.61,0,0,0,15-1.62,47.9,47.9,0,0,0,11.71-3.63l1.05,21.15Z"/><polygon class="cls-4" points="2108.46 506.62 2132.91 506.62 2132.91 557.61 2181.83 557.61 2181.83 506.62 2206.3 506.62 2206.3 632.81 2181.83 632.81 2181.83 577.49 2132.91 577.49 2132.91 632.81 2108.46 632.81 2108.46 506.62 2108.46 506.62"/><polygon class="cls-4" points="2262.02 526.51 2227.08 526.51 2227.08 506.62 2321.42 506.62 2321.42 526.51 2286.48 526.51 2286.48 632.81 2262.02 632.81 2262.02 526.51 2262.02 526.51"/></g></g></svg>